<?xml version="1.0" encoding="utf-8"?>
<!-- Generator: Adobe Illustrator 22.0.1, SVG Export Plug-In . SVG Version: 6.00 Build 0)  -->
<svg version="1.1" id="Layer_1" xmlns="http://www.w3.org/2000/svg" xmlns:xlink="http://www.w3.org/1999/xlink" x="0px" y="0px"
	 viewBox="0 0 213 72" style="enable-background:new 0 0 213 72;" xml:space="preserve">
<style type="text/css">
	.st0{fill:#FFFFFF;}
</style>
<g>
	<g>
		<path class="st0" d="M73.7,44.4l-1.3-10.7h3.7l0.5,7h0.3l0.7-6.8h4l0.8,6.8h0.3l0.3-7h3.7l-1.2,10.7h-5.4l-0.5-6.6l-0.2,0L79,44.4
			H73.7z"/>
		<path class="st0" d="M92.5,41.6h-0.9v2.8h-3.7V33.7h4.5c1.6,0,2.8,0.3,3.5,0.8c0.7,0.5,1.1,1.6,1.1,3c0,1.5-0.4,2.5-1.2,3.2
			l1.1,3.6h-3.8L92.5,41.6z M92.5,38.7c0.5,0,0.8-0.3,0.8-1c0-0.7-0.3-1-0.9-1h-0.8v2.1H92.5z"/>
		<path class="st0" d="M98.3,44.4V33.7h3.7v10.7H98.3z"/>
		<path class="st0" d="M103.1,36.7v-3h8v3H109v7.7h-3.7v-7.7H103.1z"/>
		<path class="st0" d="M111.9,36.7v-3h8v3h-2.1v7.7h-3.7v-7.7H111.9z"/>
		<path class="st0" d="M121,44.4V33.7h8v3h-4.3v0.9h3.3v2.9h-3.3v1h4.3v3H121z"/>
		<path class="st0" d="M130.3,44.4V33.7h3.6l2.5,4.1h0.2v-4.1h3.7v10.7h-3.7l-2.4-4.4H134v4.4H130.3z"/>
		<path class="st0" d="M153.8,36.8c-1.5-0.2-2.6-0.2-3.3-0.2s-1.1,0-1.2,0.1c-0.1,0-0.2,0.1-0.2,0.2c0,0.1,0.1,0.2,0.2,0.3
			c0.1,0.1,0.5,0.2,1.2,0.3c0.7,0.1,1.2,0.3,1.7,0.4c0.4,0.1,0.8,0.3,1.2,0.6s0.6,0.6,0.7,1c0.1,0.4,0.2,0.9,0.2,1.5
			c0,1.3-0.4,2.3-1.1,2.8c-0.7,0.6-1.8,0.8-3.2,0.8c-0.7,0-1.4,0-2.1-0.1c-0.8-0.1-1.3-0.2-1.7-0.3l-0.6-0.1l0.2-2.8
			c1.6,0.2,3,0.4,4,0.4c0.6,0,0.8-0.1,0.8-0.4c0-0.1-0.1-0.2-0.2-0.2c-0.1,0-0.5-0.1-1-0.2c-1.5-0.2-2.5-0.6-3-1.1s-0.8-1.3-0.8-2.4
			c0-1.4,0.3-2.4,1-3s1.8-0.8,3.2-0.8c1,0,2.2,0.1,3.6,0.3l0.7,0.1L153.8,36.8z"/>
		<path class="st0" d="M154.8,44.4l2.4-10.7h5.6l2.4,10.7h-3.7l-0.3-1.2h-2.4l-0.3,1.2H154.8z M159.7,36.6l-0.6,3.7h1.6l-0.6-3.7
			H159.7z"/>
		<path class="st0" d="M173.2,44.4H166V33.7h3.7v7.7h3.5V44.4z"/>
		<path class="st0" d="M174.3,44.4V33.7h8v3H178v0.9h3.3v2.9H178v1h4.3v3H174.3z"/>
		<path class="st0" d="M191.7,36.8c-1.5-0.2-2.6-0.2-3.3-0.2s-1.1,0-1.2,0.1c-0.1,0-0.2,0.1-0.2,0.2c0,0.1,0.1,0.2,0.2,0.3
			c0.1,0.1,0.5,0.2,1.2,0.3c0.7,0.1,1.2,0.3,1.7,0.4c0.4,0.1,0.8,0.3,1.2,0.6s0.6,0.6,0.7,1c0.1,0.4,0.2,0.9,0.2,1.5
			c0,1.3-0.4,2.3-1.1,2.8c-0.7,0.6-1.8,0.8-3.2,0.8c-0.7,0-1.4,0-2.1-0.1c-0.8-0.1-1.3-0.2-1.7-0.3l-0.6-0.1l0.2-2.8
			c1.6,0.2,3,0.4,4,0.4c0.6,0,0.8-0.1,0.8-0.4c0-0.1-0.1-0.2-0.2-0.2c-0.1,0-0.5-0.1-1-0.2c-1.5-0.2-2.5-0.6-3-1.1s-0.8-1.3-0.8-2.4
			c0-1.4,0.3-2.4,1-3s1.8-0.8,3.2-0.8c1,0,2.2,0.1,3.6,0.3l0.7,0.1L191.7,36.8z"/>
	</g>
	<path class="st0" d="M59.1,26l2.7-4.4c-1.4-0.6-2.7-1.2-4.1-1.7c-4.8-1.7-9.9-2.6-15-2.3c-5.1,0.3-10,1.6-14.3,3.9
		c-4.4,2.3-8.2,5.3-11.6,8.8c3.7-3.1,7.8-5.6,12.2-7.4c4.4-1.7,9.1-2.5,13.7-2.2c4.6,0.3,9.1,1.6,13.2,3.5
		C57,24.8,58.1,25.4,59.1,26z"/>
	<path class="st0" d="M62.6,36.4c-0.8-0.8-1.7-1.6-2.5-2.3c-0.1-0.1-0.2-0.1-0.3-0.2c-1.7-1.4-3.4-2.7-5.2-3.8
		c-3.9-2.4-8.2-4.1-12.6-4.9c-4.4-0.8-9-0.6-13.2,0.3c-4.3,1-8.3,2.7-11.9,4.9c3.9-1.7,8-2.8,12.2-3.2c4.1-0.4,8.3,0,12.1,1.3
		c3.8,1.2,7.4,3.2,10.5,5.8c0.5,0.4,1,0.8,1.4,1.3L50,40.5l-4.1-6.7h-7.7l-4.1,6.7l-4.1-6.7H18.1l11.6,19.1h8.8l3.5-5.8l3.5,5.8h8.8
		l6.9-11.3l2.5-4C63.4,37.2,63,36.8,62.6,36.4z M57.1,39.6l-6.7,11h-1.3l-7-12l-7,12h-1.3l-8.8-14.5h1.4l8,13.2l7.7-13.2l7.7,13.2
		l6.5-10.6l1.5-2.5h1.4L57.1,39.6z"/>
</g>
</svg>
