<?xml version="1.0" encoding="utf-8"?>
<!-- Generator: Adobe Illustrator 22.0.1, SVG Export Plug-In . SVG Version: 6.00 Build 0)  -->
<svg version="1.1" id="Layer_1" xmlns="http://www.w3.org/2000/svg" xmlns:xlink="http://www.w3.org/1999/xlink" x="0px" y="0px"
	 viewBox="0 0 55 47.8" style="enable-background:new 0 0 55 47.8;" xml:space="preserve">
<style type="text/css">
	.st0{fill:#FFFFFF;}
</style>
<g>
	<path class="st0" d="M45.4,14.7l2.7-4.4c-1.4-0.6-2.7-1.2-4.1-1.7c-4.8-1.7-9.9-2.6-15-2.3C24,6.6,19,7.9,14.7,10.2
		c-4.4,2.3-8.2,5.3-11.6,8.8c3.7-3.1,7.8-5.6,12.2-7.4c4.4-1.7,9.1-2.5,13.7-2.2c4.6,0.3,9.1,1.6,13.2,3.5
		C43.3,13.5,44.3,14.1,45.4,14.7z"/>
	<path class="st0" d="M48.9,25.1c-0.8-0.8-1.7-1.6-2.5-2.3c-0.1-0.1-0.2-0.1-0.3-0.2c-1.7-1.4-3.4-2.7-5.2-3.8
		c-3.9-2.4-8.2-4.1-12.6-4.9c-4.4-0.8-9-0.6-13.2,0.3c-4.3,1-8.3,2.7-11.9,4.9c3.9-1.7,8-2.8,12.2-3.2c4.1-0.4,8.3,0,12.1,1.3
		c3.8,1.2,7.4,3.2,10.5,5.8c0.5,0.4,1,0.8,1.4,1.3l-3.1,5.1l-4.1-6.7h-7.7l-4.1,6.7l-4.1-6.7H4.4L16,41.6h8.8l3.5-5.8l3.5,5.8h8.8
		l6.9-11.3l2.5-4C49.6,25.9,49.2,25.5,48.9,25.1z M43.4,28.4l-6.7,11h-1.3l-7-12l-7,12H20l-8.8-14.5h1.4l8,13.2l7.7-13.2L36.1,38
		l6.5-10.6l1.5-2.5h1.4L43.4,28.4z"/>
</g>
</svg>
