<svg height="682pt" viewBox="-21 -24 682.66534 682" width="682pt" xmlns="http://www.w3.org/2000/svg"><path d="m191.699219 317.042969c4.648437-7.648438 7.324219-16.628907 7.324219-26.21875 0-27.9375-22.734376-50.671875-50.675782-50.671875s-50.675781 22.734375-50.675781 50.671875c0 9.589843 2.679687 18.5625 7.328125 26.21875-20.621094 13.957031-34.199219 37.554687-34.199219 64.269531v14.75c0 10.414062 8.445313 18.863281 18.867188 18.863281h117.363281c10.414062 0 18.863281-8.449219 18.863281-18.863281v-14.75c0-26.714844-13.582031-50.3125-34.195312-64.269531zm-56.292969-26.21875c0-7.132813 5.804688-12.9375 12.941406-12.9375 7.136719 0 12.941406 5.804687 12.941406 12.9375 0 7.140625-5.804687 12.945312-12.941406 12.945312-7.136718 0-12.941406-5.804687-12.941406-12.945312zm-26.660156 86.371093c2.070312-20.023437 19.042968-35.699218 39.601562-35.699218 20.5625 0 37.535156 15.675781 39.601563 35.699218zm0 0"/><path d="m432.96875 228.148438h117.363281c10.417969 0 18.867188-8.445313 18.867188-18.867188v-14.75c0-26.714844-13.582031-50.316406-34.199219-64.269531 4.648438-7.648438 7.328125-16.628907 7.328125-26.21875 0-27.941407-22.734375-50.675781-50.679687-50.675781-27.9375 0-50.671876 22.734374-50.671876 50.675781 0 9.589843 2.675782 18.570312 7.324219 26.21875-20.617187 13.957031-34.195312 37.554687-34.195312 64.269531v14.75c0 10.421875 8.449219 18.867188 18.863281 18.867188zm19.082031-37.734376c2.066407-20.023437 19.039063-35.691406 39.597657-35.691406 20.5625 0 37.535156 15.667969 39.605468 35.691406zm26.660157-86.371093c0-7.132813 5.804687-12.941407 12.9375-12.941407 7.140624 0 12.945312 5.808594 12.945312 12.941407 0 7.136719-5.804688 12.945312-12.945312 12.945312-7.132813 0-12.9375-5.808593-12.9375-12.945312zm0 0"/><path d="m535 466.632812c4.648438-7.648437 7.324219-16.628906 7.324219-26.214843 0-27.945313-22.730469-50.679688-50.675781-50.679688-27.941407 0-50.671876 22.734375-50.671876 50.679688 0 9.585937 2.675782 18.566406 7.324219 26.214843-20.617187 13.957032-34.195312 37.558594-34.195312 64.273438v14.746094c0 10.421875 8.449219 18.867187 18.863281 18.867187h117.363281c10.417969 0 18.867188-8.445312 18.867188-18.867187v-14.746094c0-26.714844-13.582031-50.316406-34.199219-64.273438zm-56.289062-26.214843c0-7.136719 5.804687-12.945313 12.9375-12.945313 7.140624 0 12.945312 5.808594 12.945312 12.945313 0 7.132812-5.804688 12.941406-12.945312 12.941406-7.132813 0-12.9375-5.808594-12.9375-12.941406zm-26.660157 86.367187c2.066407-20.023437 19.039063-35.691406 39.597657-35.691406 20.5625 0 37.535156 15.667969 39.605468 35.691406zm0 0"/><path d="m491.648438 336.453125c-68.636719 0-126.523438 46.855469-143.382813 110.257813l-67.796875-44.066407c10.371094-20.242187 16.230469-43.167969 16.230469-67.429687 0-21.828125-4.742188-42.5625-13.242188-61.242188l83.476563-45.296875c26.433594 40.949219 72.460937 68.105469 124.714844 68.105469 81.800781 0 148.351562-66.546875 148.351562-148.347656 0-81.796875-66.550781-148.3515628-148.351562-148.3515628-81.796876 0-148.347657 66.5468748-148.347657 148.3515628 0 16.101562 2.59375 31.613281 7.359375 46.144531l-87.121094 47.273437c-27.222656-33.523437-68.746093-54.988281-115.191406-54.988281-81.800781 0-148.347656 66.550781-148.347656 148.351563 0 81.796875 66.546875 148.34375 148.347656 148.34375 44 0 83.582032-19.261719 110.773438-49.789063l84.226562 54.75c1.984375 80.085938 67.746094 144.632813 148.300782 144.632813 81.800781 0 148.351562-66.550782 148.351562-148.347656 0-81.804688-66.550781-148.351563-148.351562-148.351563zm0-298.636719c60.996093 0 110.617187 49.621094 110.617187 110.617188 0 60.988281-49.621094 110.613281-110.617187 110.613281-60.988282 0-110.613282-49.625-110.613282-110.613281 0-60.996094 49.625-110.617188 110.613282-110.617188zm-343.300782 408.011719c-60.996094 0-110.613281-49.625-110.613281-110.613281 0-60.996094 49.617187-110.617188 110.613281-110.617188 60.992188 0 110.617188 49.621094 110.617188 110.617188 0 60.988281-49.625 110.613281-110.617188 110.613281zm343.300782 149.589844c-60.988282 0-110.613282-49.625-110.613282-110.613281 0-60.992188 49.625-110.617188 110.613282-110.617188 60.996093 0 110.617187 49.625 110.617187 110.617188 0 60.988281-49.621094 110.613281-110.617187 110.613281zm0 0"/></svg>